<svg xmlns="http://www.w3.org/2000/svg" width="16" height="16">
  <path d="M 2 0 C 0.892 0 0 0.892 0 2 L 0 14 C 0 15.108 0.892 16 2 16 L 10 16 L 10 14 L 2 14 L 2 2 L 2 0 z M 14 0 L 14 2 L 14 10 L 16 10 L 16 2 C 16 0.892 15.108 0 14 0 z M 5 1 C 3.892 1 3 1.892 3 3 L 3 10 C 3 11.108 3.892 12 5 12 L 10 12 L 10 10 L 13 10 L 13 3 C 13 1.892 12.108 1 11 1 L 5 1 z M 8 3 C 9.662 3 11 4.338 11 6 C 11 7.662 9.662 9 8 9 L 5 9 L 5 6 C 5 4.338 6.338 3 8 3 z M 8 5 C 7.446 5 7 5.446 7 6 C 7 6.554 7.446 7 8 7 C 8.554 7 9 6.554 9 6 C 9 5.446 8.554 5 8 5 z M 11 11 L 11 16 L 16 16 L 16 11 L 11 11 z M 12 12 L 13 12 L 13 13 L 14 13 L 14 12 L 15 12 L 15 14 L 14 14 L 14 15 L 13 15 L 13 14 L 12 14 L 12 12 z " fill="#c0bfbc" />
</svg>
