<?xml version="1.0" encoding="UTF-8"?>
<svg width="128" height="128" version="1.1" viewBox="0 0 128 128.00001" xmlns="http://www.w3.org/2000/svg">
<defs>
<linearGradient id="e" x1="2" x2="30" y1="27" y2="27" gradientTransform="matrix(4,0,0,4,0,-4)" gradientUnits="userSpaceOnUse">
<stop stop-color="#5e5c64" offset="0"/>
<stop stop-color="#9a9996" offset=".035714"/>
<stop stop-color="#5e5c64" offset=".071429"/>
<stop stop-color="#5e5c64" offset=".92857"/>
<stop stop-color="#9a9996" offset=".96429"/>
<stop stop-color="#5e5c64" offset="1"/>
</linearGradient>
<linearGradient id="d" x1="10" x2="10" y1="3" y2="37" gradientTransform="matrix(.5 0 0 .5 -6.25e-8 3.5)" gradientUnits="userSpaceOnUse">
<stop stop-color="#acaba8" offset="0"/>
<stop stop-color="#cac9c6" offset="1"/>
</linearGradient>
<linearGradient id="c" x1="3" x2="29" y1="17" y2="17" gradientTransform="translate(0,-2)" gradientUnits="userSpaceOnUse">
<stop stop-color="#9a9996" offset="0"/>
<stop stop-color="#deddda" offset=".037101"/>
<stop stop-color="#9a9996" offset=".076507"/>
<stop stop-color="#9a9996" offset=".92289"/>
<stop stop-color="#deddda" offset=".96229"/>
<stop stop-color="#9a9996" offset="1"/>
</linearGradient>
<linearGradient id="b" x1="13.17" x2="13" y1="21" y2="11" gradientTransform="translate(0,-3)" gradientUnits="userSpaceOnUse">
<stop stop-color="#f6f5f4" offset="0"/>
<stop stop-color="#deddda" offset="1"/>
</linearGradient>
</defs>
<rect x="8" y="24" width="112" height="24" ry="4" fill="#5e5c64"/>
<rect x="8" y="48" width="112" height="24" ry="4" fill="#5e5c64"/>
<rect x="8" y="72" width="112" height="24" ry="4.2348" fill="#5e5c64"/>
<rect x="8" y="92" width="112" height="20" ry="4" fill="url(#e)"/>
<rect x="8" y="12" width="112" height="20" ry="4" fill="#9a9996"/>
<rect x="8" y="36" width="112" height="20" ry="4" fill="#9a9996"/>
<rect x="8" y="60" width="112" height="20" ry="4" fill="#9a9996"/>
<rect x="8" y="84" width="112" height="20" ry="4" fill="#9a9996"/>
<rect x="56" y="16" width="60" height="12" ry="0" fill="#3d3846"/>
<rect x="56" y="20" width="60" height="8" ry="0" fill="#5e5c64"/>
<rect x="56" y="40" width="60" height="12" ry="0" fill="#3d3846"/>
<rect x="56" y="44" width="60" height="8" ry="0" fill="#5e5c64"/>
<rect x="56" y="64" width="60" height="12" ry="0" fill="#3d3846"/>
<rect x="56" y="68" width="60" height="8" ry="0" fill="#5e5c64"/>
<rect x="56" y="88" width="60" height="12" ry="0" fill="#3d3846"/>
<rect x="56" y="92" width="60" height="8" ry="0" fill="#5e5c64"/>
<rect x="16" y="16" width="4" height="8" ry="2" fill="#5e5c64"/>
<rect x="16" y="20" width="4" height="4" ry="2" fill="#f6d32d"/>
<rect x="24" y="16" width="4" height="8" ry="2" fill="#5e5c64"/>
<rect x="24" y="20" width="4" height="4" ry="2" fill="#33d17a"/>
<rect x="16" y="40" width="4" height="8" ry="2" fill="#5e5c64"/>
<rect x="16" y="44" width="4" height="4" ry="2" fill="#33d17a"/>
<rect x="24" y="40" width="4" height="8" ry="2" fill="#5e5c64"/>
<rect x="24" y="44" width="4" height="4" ry="2" fill="#e01b24"/>
<rect x="16" y="64" width="4" height="8" ry="2" fill="#5e5c64"/>
<rect x="16" y="68" width="4" height="4" ry="2" fill="#e01b24"/>
<rect x="24" y="64" width="4" height="8" ry="2" fill="#5e5c64"/>
<rect x="24" y="68" width="4" height="4" ry="2" fill="#f6d32d"/>
<rect x="16" y="88" width="4" height="8" ry="2" fill="#5e5c64"/>
<rect x="16" y="92" width="4" height="4" ry="2" fill="#f6d32d"/>
<rect x="24" y="88" width="4" height="8" ry="2" fill="#5e5c64"/>
<rect x="24" y="92" width="4" height="4" ry="2" fill="#33d17a"/>
<rect x="60" y="44" width="4" height="8" fill="#3d3846"/>
<rect x="60" y="40" width="4" height="4" fill="#241f31"/>
<rect x="68" y="44" width="4" height="8" fill="#3d3846"/>
<rect x="68" y="40" width="4" height="4" fill="#241f31"/>
<rect x="76" y="44" width="4" height="8" fill="#3d3846"/>
<rect x="76" y="40" width="4" height="4" fill="#241f31"/>
<rect x="84" y="44" width="4" height="8" fill="#3d3846"/>
<rect x="84" y="40" width="4" height="4" fill="#241f31"/>
<rect x="92" y="44" width="4" height="8" fill="#3d3846"/>
<rect x="92" y="40" width="4" height="4" fill="#241f31"/>
<rect x="100" y="44" width="4" height="8" fill="#3d3846"/>
<rect x="100" y="40" width="4" height="4" fill="#241f31"/>
<rect x="108" y="44" width="4" height="8" fill="#3d3846"/>
<rect x="108" y="40" width="4" height="4" fill="#241f31"/>
<rect x="60" y="20" width="4" height="8" fill="#3d3846"/>
<rect x="60" y="16" width="4" height="4" fill="#241f31"/>
<rect x="68" y="20" width="4" height="8" fill="#3d3846"/>
<rect x="68" y="16" width="4" height="4" fill="#241f31"/>
<rect x="76" y="20" width="4" height="8" fill="#3d3846"/>
<rect x="76" y="16" width="4" height="4" fill="#241f31"/>
<rect x="84" y="20" width="4" height="8" fill="#3d3846"/>
<rect x="84" y="16" width="4" height="4" fill="#241f31"/>
<rect x="92" y="20" width="4" height="8" fill="#3d3846"/>
<rect x="92" y="16" width="4" height="4" fill="#241f31"/>
<rect x="100" y="20" width="4" height="8" fill="#3d3846"/>
<rect x="100" y="16" width="4" height="4" fill="#241f31"/>
<rect x="108" y="20" width="4" height="8" fill="#3d3846"/>
<rect x="108" y="16" width="4" height="4" fill="#241f31"/>
<rect x="60" y="68" width="4" height="8" fill="#3d3846"/>
<rect x="60" y="64" width="4" height="4" fill="#241f31"/>
<rect x="68" y="68" width="4" height="8" fill="#3d3846"/>
<rect x="68" y="64" width="4" height="4" fill="#241f31"/>
<rect x="76" y="68" width="4" height="8" fill="#3d3846"/>
<rect x="76" y="64" width="4" height="4" fill="#241f31"/>
<rect x="84" y="68" width="4" height="8" fill="#3d3846"/>
<rect x="84" y="64" width="4" height="4" fill="#241f31"/>
<rect x="92" y="68" width="4" height="8" fill="#3d3846"/>
<rect x="92" y="64" width="4" height="4" fill="#241f31"/>
<rect x="100" y="68" width="4" height="8" fill="#3d3846"/>
<rect x="100" y="64" width="4" height="4" fill="#241f31"/>
<rect x="108" y="68" width="4" height="8" fill="#3d3846"/>
<rect x="108" y="64" width="4" height="4" fill="#241f31"/>
<rect x="60" y="92" width="4" height="8" fill="#3d3846"/>
<rect x="60" y="88" width="4" height="4" fill="#241f31"/>
<rect x="68" y="92" width="4" height="8" fill="#3d3846"/>
<rect x="68" y="88" width="4" height="4" fill="#241f31"/>
<rect x="76" y="92" width="4" height="8" fill="#3d3846"/>
<rect x="76" y="88" width="4" height="4" fill="#241f31"/>
<rect x="84" y="92" width="4" height="8" fill="#3d3846"/>
<rect x="84" y="88" width="4" height="4" fill="#241f31"/>
<rect x="92" y="92" width="4" height="8" fill="#3d3846"/>
<rect x="92" y="88" width="4" height="4" fill="#241f31"/>
<rect x="100" y="92" width="4" height="8" fill="#3d3846"/>
<rect x="100" y="88" width="4" height="4" fill="#241f31"/>
<rect x="108" y="92" width="4" height="8" fill="#3d3846"/>
<rect x="108" y="88" width="4" height="4" fill="#241f31"/>
<g transform="matrix(2,0,0,2,67,68)">
<rect x="3" y="8" width="26" height="17" ry="2"/>
<rect x="3" y="6" width="26" height="17" ry="2" fill="url(#c)"/>
<rect x="3" y="5" width="26" height="17" ry="2" fill="url(#d)"/>
<rect x="27" y="20" width="1" height="1" ry=".5" fill="#77767b"/>
<rect x="27" y="6" width="1" height="1" ry=".5" fill="#77767b"/>
<rect x="13" y="6" width="1" height="1" ry=".5" fill="#77767b"/>
<rect x="5" y="6" width="1" height="1" ry=".5" fill="#77767b"/>
<rect x="5" y="20" width="1" height="1" ry=".5" fill="#77767b"/>
<rect x="13" y="20" width="1" height="1" ry=".5" fill="#77767b"/>
<path d="m8 7a1.0001 1.0001 0 0 0 -1 1c0 0.56413-0.43587 1-1 1a1.0001 1.0001 0 0 0 -1 1v8a1.0001 1.0001 0 0 0 1 1c0.56413 0 1 0.43587 1 1a1.0001 1.0001 0 0 0 1 1h3a1.0001 1.0001 0 0 0 1 -1c0-0.56346 0.43489-0.99897 0.99805-1 0.01065 3.46e-4 0.02158 0.0013 0.03125 2e-3a1.0001 1.0001 0 0 0 0.14062 -2e-3h1.6406c1.2858 1.2032 2.9617 1.9988 4.7246 2 1.8326 0 3.6534-0.75494 4.9492-2.0508s2.0508-3.1166 2.0508-4.9492-0.75494-3.6534-2.0508-4.9492c-1.2958-1.2958-3.1166-2.0508-4.9492-2.0508a1.0001 1.0001 0 0 0 -2e-3 0c-1.7604 0.00265-3.4325 0.79887-4.7168 2h-1.8164c-0.56413 0-1-0.43587-1-1a1.0001 1.0001 0 0 0 -1 -1z" fill="#acaba8"/>
<path d="m8 6a1.0001 1.0001 0 0 0 -1 1c0 0.56413-0.43587 1-1 1a1.0001 1.0001 0 0 0 -1 1v8a1.0001 1.0001 0 0 0 1 1c0.56413 0 1 0.43587 1 1a1.0001 1.0001 0 0 0 1 1h3a1.0001 1.0001 0 0 0 1 -1c0-0.56346 0.43489-0.99897 0.99805-1 0.01065 3.46e-4 0.02158 0.0013 0.03125 2e-3a1.0001 1.0001 0 0 0 0.14062 -2e-3h1.6406c1.2858 1.2032 2.9617 1.9988 4.7246 2 1.8326 0 3.6534-0.75494 4.9492-2.0508s2.0508-3.1166 2.0508-4.9492-0.75494-3.6534-2.0508-4.9492c-1.2958-1.2958-3.1166-2.0508-4.9492-2.0508a1.0001 1.0001 0 0 0 -2e-3 0c-1.7604 0.00265-3.4325 0.79887-4.7168 2h-1.8164c-0.56413 0-1-0.43587-1-1a1.0001 1.0001 0 0 0 -1 -1z" fill="url(#b)"/>
<rect x="18" y="10" width="4" height="4" ry="2" fill="#adaba7"/>
<rect x="18" y="11" width="4" height="4" ry="2" fill="#cac9c6"/>
</g>
</svg>
