<?xml version="1.0" encoding="UTF-8" standalone="no"?>
<svg
   xmlns:dc="http://purl.org/dc/elements/1.1/"
   xmlns:cc="http://creativecommons.org/ns#"
   xmlns:rdf="http://www.w3.org/1999/02/22-rdf-syntax-ns#"
   xmlns:svg="http://www.w3.org/2000/svg"
   xmlns="http://www.w3.org/2000/svg"
   id="svg199"
   viewBox="0 0 128 128.00001"
   version="1.1"
   height="128"
   width="128">
  <defs
     id="defs15">
    <linearGradient
       gradientUnits="userSpaceOnUse"
       gradientTransform="matrix(4,0,0,4,0,-4)"
       y2="27"
       y1="27"
       x2="30"
       x1="2"
       id="a">
      <stop
         id="stop2"
         offset="0"
         stop-color="#5e5c64" />
      <stop
         id="stop4"
         offset=".035714"
         stop-color="#9a9996" />
      <stop
         id="stop6"
         offset=".071429"
         stop-color="#5e5c64" />
      <stop
         id="stop8"
         offset=".92857"
         stop-color="#5e5c64" />
      <stop
         id="stop10"
         offset=".96429"
         stop-color="#9a9996" />
      <stop
         id="stop12"
         offset="1"
         stop-color="#5e5c64" />
    </linearGradient>
    <linearGradient
       id="d"
       x1="10"
       x2="10"
       y1="3"
       y2="37"
       gradientTransform="matrix(0.5,0,0,0.5,-6.25e-8,3.5)"
       gradientUnits="userSpaceOnUse">
      <stop
         stop-color="#acaba8"
         offset="0"
         id="stop1008" />
      <stop
         stop-color="#cac9c6"
         offset="1"
         id="stop1010" />
    </linearGradient>
    <linearGradient
       id="e"
       x1="3"
       x2="29"
       y1="17"
       y2="17"
       gradientTransform="translate(0,-2)"
       gradientUnits="userSpaceOnUse">
      <stop
         stop-color="#9a9996"
         offset="0"
         id="stop1013" />
      <stop
         stop-color="#deddda"
         offset=".037101"
         id="stop1015" />
      <stop
         stop-color="#9a9996"
         offset=".076507"
         id="stop1017" />
      <stop
         stop-color="#9a9996"
         offset=".92289"
         id="stop1019" />
      <stop
         stop-color="#deddda"
         offset=".96229"
         id="stop1021" />
      <stop
         stop-color="#9a9996"
         offset="1"
         id="stop1023" />
    </linearGradient>
    <linearGradient
       id="f"
       x1="13.17"
       x2="13"
       y1="21"
       y2="11"
       gradientTransform="translate(0,-3)"
       gradientUnits="userSpaceOnUse">
      <stop
         stop-color="#f6f5f4"
         offset="0"
         id="stop1026" />
      <stop
         stop-color="#deddda"
         offset="1"
         id="stop1028" />
    </linearGradient>
  </defs>
  <metadata
     id="metadata17">
    <rdf:RDF>
      <cc:Work
         rdf:about="">
        <dc:format>image/svg+xml</dc:format>
        <dc:type
           rdf:resource="http://purl.org/dc/dcmitype/StillImage" />
        <dc:title></dc:title>
      </cc:Work>
    </rdf:RDF>
  </metadata>
  <rect
     style="fill:#5e5c64;stroke-width:4"
     id="rect19"
     ry="4"
     height="24"
     width="112"
     y="24"
     x="8" />
  <rect
     style="fill:#5e5c64;stroke-width:4"
     id="rect21"
     ry="4"
     height="24"
     width="112"
     y="48"
     x="8" />
  <rect
     style="fill:#5e5c64;stroke-width:4"
     id="rect23"
     ry="4.2347999"
     height="24"
     width="112"
     y="72"
     x="8" />
  <rect
     style="fill:url(#a);stroke-width:4"
     id="rect25"
     ry="4"
     height="20"
     width="112"
     y="92"
     x="8" />
  <rect
     style="fill:#9a9996;stroke-width:4"
     id="rect27"
     ry="4"
     height="20"
     width="112"
     y="12"
     x="8" />
  <rect
     style="fill:#9a9996;stroke-width:4"
     id="rect29"
     ry="4"
     height="20"
     width="112"
     y="36"
     x="8" />
  <rect
     style="fill:#9a9996;stroke-width:4"
     id="rect31"
     ry="4"
     height="20"
     width="112"
     y="60"
     x="8" />
  <rect
     style="fill:#9a9996;stroke-width:4"
     id="rect33"
     ry="4"
     height="20"
     width="112"
     y="84"
     x="8" />
  <rect
     style="fill:#3d3846;stroke-width:4"
     id="rect35"
     ry="0"
     height="12"
     width="60"
     y="16"
     x="56" />
  <rect
     style="fill:#5e5c64;stroke-width:4"
     id="rect37"
     ry="0"
     height="8"
     width="60"
     y="20"
     x="56" />
  <rect
     style="fill:#3d3846;stroke-width:4"
     id="rect39"
     ry="0"
     height="12"
     width="60"
     y="40"
     x="56" />
  <rect
     style="fill:#5e5c64;stroke-width:4"
     id="rect41"
     ry="0"
     height="8"
     width="60"
     y="44"
     x="56" />
  <rect
     style="fill:#3d3846;stroke-width:4"
     id="rect43"
     ry="0"
     height="12"
     width="60"
     y="64"
     x="56" />
  <rect
     style="fill:#5e5c64;stroke-width:4"
     id="rect45"
     ry="0"
     height="8"
     width="60"
     y="68"
     x="56" />
  <rect
     style="fill:#3d3846;stroke-width:4"
     id="rect47"
     ry="0"
     height="12"
     width="60"
     y="88"
     x="56" />
  <rect
     style="fill:#5e5c64;stroke-width:4"
     id="rect49"
     ry="0"
     height="8"
     width="60"
     y="92"
     x="56" />
  <rect
     style="fill:#5e5c64;stroke-width:4"
     id="rect51"
     ry="2"
     height="8"
     width="4"
     y="16"
     x="16" />
  <rect
     style="fill:#f6d32d;stroke-width:4"
     id="rect53"
     ry="2"
     height="4"
     width="4"
     y="20"
     x="16" />
  <rect
     style="fill:#5e5c64;stroke-width:4"
     id="rect55"
     ry="2"
     height="8"
     width="4"
     y="16"
     x="24" />
  <rect
     style="fill:#33d17a;stroke-width:4"
     id="rect57"
     ry="2"
     height="4"
     width="4"
     y="20"
     x="24" />
  <rect
     style="fill:#5e5c64;stroke-width:4"
     id="rect59"
     ry="2"
     height="8"
     width="4"
     y="40"
     x="16" />
  <rect
     style="fill:#33d17a;stroke-width:4"
     id="rect61"
     ry="2"
     height="4"
     width="4"
     y="44"
     x="16" />
  <rect
     style="fill:#5e5c64;stroke-width:4"
     id="rect63"
     ry="2"
     height="8"
     width="4"
     y="40"
     x="24" />
  <rect
     style="fill:#e01b24;stroke-width:4"
     id="rect65"
     ry="2"
     height="4"
     width="4"
     y="44"
     x="24" />
  <rect
     style="fill:#5e5c64;stroke-width:4"
     id="rect67"
     ry="2"
     height="8"
     width="4"
     y="64"
     x="16" />
  <rect
     style="fill:#e01b24;stroke-width:4"
     id="rect69"
     ry="2"
     height="4"
     width="4"
     y="68"
     x="16" />
  <rect
     style="fill:#5e5c64;stroke-width:4"
     id="rect71"
     ry="2"
     height="8"
     width="4"
     y="64"
     x="24" />
  <rect
     style="fill:#f6d32d;stroke-width:4"
     id="rect73"
     ry="2"
     height="4"
     width="4"
     y="68"
     x="24" />
  <rect
     style="fill:#5e5c64;stroke-width:4"
     id="rect75"
     ry="2"
     height="8"
     width="4"
     y="88"
     x="16" />
  <rect
     style="fill:#f6d32d;stroke-width:4"
     id="rect77"
     ry="2"
     height="4"
     width="4"
     y="92"
     x="16" />
  <rect
     style="fill:#5e5c64;stroke-width:4"
     id="rect79"
     ry="2"
     height="8"
     width="4"
     y="88"
     x="24" />
  <rect
     style="fill:#33d17a;stroke-width:4"
     id="rect81"
     ry="2"
     height="4"
     width="4"
     y="92"
     x="24" />
  <rect
     style="fill:#3d3846;stroke-width:4"
     id="rect83"
     height="8"
     width="4"
     y="44"
     x="60" />
  <rect
     style="fill:#241f31;stroke-width:4"
     id="rect85"
     height="4"
     width="4"
     y="40"
     x="60" />
  <rect
     style="fill:#3d3846;stroke-width:4"
     id="rect87"
     height="8"
     width="4"
     y="44"
     x="68" />
  <rect
     style="fill:#241f31;stroke-width:4"
     id="rect89"
     height="4"
     width="4"
     y="40"
     x="68" />
  <rect
     style="fill:#3d3846;stroke-width:4"
     id="rect91"
     height="8"
     width="4"
     y="44"
     x="76" />
  <rect
     style="fill:#241f31;stroke-width:4"
     id="rect93"
     height="4"
     width="4"
     y="40"
     x="76" />
  <rect
     style="fill:#3d3846;stroke-width:4"
     id="rect95"
     height="8"
     width="4"
     y="44"
     x="84" />
  <rect
     style="fill:#241f31;stroke-width:4"
     id="rect97"
     height="4"
     width="4"
     y="40"
     x="84" />
  <rect
     style="fill:#3d3846;stroke-width:4"
     id="rect99"
     height="8"
     width="4"
     y="44"
     x="92" />
  <rect
     style="fill:#241f31;stroke-width:4"
     id="rect101"
     height="4"
     width="4"
     y="40"
     x="92" />
  <rect
     style="fill:#3d3846;stroke-width:4"
     id="rect103"
     height="8"
     width="4"
     y="44"
     x="100" />
  <rect
     style="fill:#241f31;stroke-width:4"
     id="rect105"
     height="4"
     width="4"
     y="40"
     x="100" />
  <rect
     style="fill:#3d3846;stroke-width:4"
     id="rect107"
     height="8"
     width="4"
     y="44"
     x="108" />
  <rect
     style="fill:#241f31;stroke-width:4"
     id="rect109"
     height="4"
     width="4"
     y="40"
     x="108" />
  <rect
     style="fill:#3d3846;stroke-width:4"
     id="rect111"
     height="8"
     width="4"
     y="20"
     x="60" />
  <rect
     style="fill:#241f31;stroke-width:4"
     id="rect113"
     height="4"
     width="4"
     y="16"
     x="60" />
  <rect
     style="fill:#3d3846;stroke-width:4"
     id="rect115"
     height="8"
     width="4"
     y="20"
     x="68" />
  <rect
     style="fill:#241f31;stroke-width:4"
     id="rect117"
     height="4"
     width="4"
     y="16"
     x="68" />
  <rect
     style="fill:#3d3846;stroke-width:4"
     id="rect119"
     height="8"
     width="4"
     y="20"
     x="76" />
  <rect
     style="fill:#241f31;stroke-width:4"
     id="rect121"
     height="4"
     width="4"
     y="16"
     x="76" />
  <rect
     style="fill:#3d3846;stroke-width:4"
     id="rect123"
     height="8"
     width="4"
     y="20"
     x="84" />
  <rect
     style="fill:#241f31;stroke-width:4"
     id="rect125"
     height="4"
     width="4"
     y="16"
     x="84" />
  <rect
     style="fill:#3d3846;stroke-width:4"
     id="rect127"
     height="8"
     width="4"
     y="20"
     x="92" />
  <rect
     style="fill:#241f31;stroke-width:4"
     id="rect129"
     height="4"
     width="4"
     y="16"
     x="92" />
  <rect
     style="fill:#3d3846;stroke-width:4"
     id="rect131"
     height="8"
     width="4"
     y="20"
     x="100" />
  <rect
     style="fill:#241f31;stroke-width:4"
     id="rect133"
     height="4"
     width="4"
     y="16"
     x="100" />
  <rect
     style="fill:#3d3846;stroke-width:4"
     id="rect135"
     height="8"
     width="4"
     y="20"
     x="108" />
  <rect
     style="fill:#241f31;stroke-width:4"
     id="rect137"
     height="4"
     width="4"
     y="16"
     x="108" />
  <rect
     style="fill:#3d3846;stroke-width:4"
     id="rect139"
     height="8"
     width="4"
     y="68"
     x="60" />
  <rect
     style="fill:#241f31;stroke-width:4"
     id="rect141"
     height="4"
     width="4"
     y="64"
     x="60" />
  <rect
     style="fill:#3d3846;stroke-width:4"
     id="rect143"
     height="8"
     width="4"
     y="68"
     x="68" />
  <rect
     style="fill:#241f31;stroke-width:4"
     id="rect145"
     height="4"
     width="4"
     y="64"
     x="68" />
  <rect
     style="fill:#3d3846;stroke-width:4"
     id="rect147"
     height="8"
     width="4"
     y="68"
     x="76" />
  <rect
     style="fill:#241f31;stroke-width:4"
     id="rect149"
     height="4"
     width="4"
     y="64"
     x="76" />
  <rect
     style="fill:#3d3846;stroke-width:4"
     id="rect151"
     height="8"
     width="4"
     y="68"
     x="84" />
  <rect
     style="fill:#241f31;stroke-width:4"
     id="rect153"
     height="4"
     width="4"
     y="64"
     x="84" />
  <rect
     style="fill:#3d3846;stroke-width:4"
     id="rect155"
     height="8"
     width="4"
     y="68"
     x="92" />
  <rect
     style="fill:#241f31;stroke-width:4"
     id="rect157"
     height="4"
     width="4"
     y="64"
     x="92" />
  <rect
     style="fill:#3d3846;stroke-width:4"
     id="rect159"
     height="8"
     width="4"
     y="68"
     x="100" />
  <rect
     style="fill:#241f31;stroke-width:4"
     id="rect161"
     height="4"
     width="4"
     y="64"
     x="100" />
  <rect
     style="fill:#3d3846;stroke-width:4"
     id="rect163"
     height="8"
     width="4"
     y="68"
     x="108" />
  <rect
     style="fill:#241f31;stroke-width:4"
     id="rect165"
     height="4"
     width="4"
     y="64"
     x="108" />
  <rect
     style="fill:#3d3846;stroke-width:4"
     id="rect167"
     height="8"
     width="4"
     y="92"
     x="60" />
  <rect
     style="fill:#241f31;stroke-width:4"
     id="rect169"
     height="4"
     width="4"
     y="88"
     x="60" />
  <rect
     style="fill:#3d3846;stroke-width:4"
     id="rect171"
     height="8"
     width="4"
     y="92"
     x="68" />
  <rect
     style="fill:#241f31;stroke-width:4"
     id="rect173"
     height="4"
     width="4"
     y="88"
     x="68" />
  <rect
     style="fill:#3d3846;stroke-width:4"
     id="rect175"
     height="8"
     width="4"
     y="92"
     x="76" />
  <rect
     style="fill:#241f31;stroke-width:4"
     id="rect177"
     height="4"
     width="4"
     y="88"
     x="76" />
  <rect
     style="fill:#3d3846;stroke-width:4"
     id="rect179"
     height="8"
     width="4"
     y="92"
     x="84" />
  <rect
     style="fill:#241f31;stroke-width:4"
     id="rect181"
     height="4"
     width="4"
     y="88"
     x="84" />
  <rect
     style="fill:#3d3846;stroke-width:4"
     id="rect183"
     height="8"
     width="4"
     y="92"
     x="92" />
  <rect
     style="fill:#241f31;stroke-width:4"
     id="rect185"
     height="4"
     width="4"
     y="88"
     x="92" />
  <rect
     style="fill:#3d3846;stroke-width:4"
     id="rect187"
     height="8"
     width="4"
     y="92"
     x="100" />
  <rect
     style="fill:#241f31;stroke-width:4"
     id="rect189"
     height="4"
     width="4"
     y="88"
     x="100" />
  <rect
     style="fill:#3d3846;stroke-width:4"
     id="rect191"
     height="8"
     width="4"
     y="92"
     x="108" />
  <rect
     style="fill:#241f31;stroke-width:4"
     id="rect193"
     height="4"
     width="4"
     y="88"
     x="108" />
  <g
     transform="matrix(2,0,0,2,67,68)"
     id="g1106">
    <rect
       x="3"
       y="8"
       width="26"
       height="17"
       ry="2"
       id="rect1035" />
    <rect
       style="fill:url(#e)"
       x="3"
       y="6"
       width="26"
       height="17"
       ry="2"
       id="rect1037" />
    <rect
       style="fill:url(#d)"
       x="3"
       y="5"
       width="26"
       height="17"
       ry="2"
       id="rect1039" />
    <rect
       style="fill:#77767b"
       x="27"
       y="20"
       width="1"
       height="1"
       ry="0.5"
       id="rect1041" />
    <rect
       style="fill:#77767b"
       x="27"
       y="6"
       width="1"
       height="1"
       ry="0.5"
       id="rect1043" />
    <rect
       style="fill:#77767b"
       x="13"
       y="6"
       width="1"
       height="1"
       ry="0.5"
       id="rect1045" />
    <rect
       style="fill:#77767b"
       x="5"
       y="6"
       width="1"
       height="1"
       ry="0.5"
       id="rect1047" />
    <rect
       style="fill:#77767b"
       x="5"
       y="20"
       width="1"
       height="1"
       ry="0.5"
       id="rect1049" />
    <rect
       style="fill:#77767b"
       x="13"
       y="20"
       width="1"
       height="1"
       ry="0.5"
       id="rect1051" />
    <path
       style="fill:#acaba8"
       d="M 8,7 A 1.0001,1.0001 0 0 0 7,8 C 7,8.56413 6.56413,9 6,9 a 1.0001,1.0001 0 0 0 -1,1 v 8 a 1.0001,1.0001 0 0 0 1,1 c 0.56413,0 1,0.43587 1,1 a 1.0001,1.0001 0 0 0 1,1 h 3 a 1.0001,1.0001 0 0 0 1,-1 c 0,-0.56346 0.43489,-0.99897 0.99805,-1 0.01065,3.46e-4 0.02158,0.0013 0.03125,0.002 A 1.0001,1.0001 0 0 0 13.16992,19 h 1.6406 c 1.2858,1.2032 2.9617,1.9988 4.7246,2 1.8326,0 3.6534,-0.75494 4.9492,-2.0508 1.2958,-1.29586 2.0508,-3.1166 2.0508,-4.9492 0,-1.8326 -0.75494,-3.6534 -2.0508,-4.9492 C 23.18852,7.755 21.36772,7 19.53512,7 a 1.0001,1.0001 0 0 0 -0.002,0 c -1.7604,0.00265 -3.4325,0.79887 -4.7168,2 h -1.8164 c -0.56413,0 -1,-0.43587 -1,-1 a 1.0001,1.0001 0 0 0 -1,-1 z"
       id="path1053" />
    <path
       style="fill:url(#f)"
       d="M 8,6 A 1.0001,1.0001 0 0 0 7,7 C 7,7.56413 6.56413,8 6,8 A 1.0001,1.0001 0 0 0 5,9 v 8 a 1.0001,1.0001 0 0 0 1,1 c 0.56413,0 1,0.43587 1,1 a 1.0001,1.0001 0 0 0 1,1 h 3 a 1.0001,1.0001 0 0 0 1,-1 c 0,-0.56346 0.43489,-0.99897 0.99805,-1 0.01065,3.46e-4 0.02158,0.0013 0.03125,0.002 A 1.0001,1.0001 0 0 0 13.16992,18 h 1.6406 c 1.2858,1.2032 2.9617,1.9988 4.7246,2 1.8326,0 3.6534,-0.75494 4.9492,-2.0508 1.2958,-1.29586 2.0508,-3.1166 2.0508,-4.9492 0,-1.8326 -0.75494,-3.6534 -2.0508,-4.9492 C 23.18852,6.755 21.36772,6 19.53512,6 a 1.0001,1.0001 0 0 0 -0.002,0 c -1.7604,0.00265 -3.4325,0.79887 -4.7168,2 h -1.8164 c -0.56413,0 -1,-0.43587 -1,-1 a 1.0001,1.0001 0 0 0 -1,-1 z"
       id="path1055" />
    <rect
       style="fill:#adaba7;fill-opacity:0.99589999"
       x="18"
       y="10"
       width="4"
       height="4"
       ry="2"
       id="rect1057" />
    <rect
       style="fill:#cac9c6;fill-opacity:0.99589999"
       x="18"
       y="11"
       width="4"
       height="4"
       ry="2"
       id="rect1059" />
  </g>
</svg>
